<svg id="visual" viewBox="0 0 960 540" width="960" height="540" xmlns="http://www.w3.org/2000/svg" xmlns:xlink="http://www.w3.org/1999/xlink" version="1.1"><rect x="0" y="0" width="960" height="540" fill="#2d5bfd"></rect><defs><linearGradient id="grad1_0" x1="43.8%" y1="100%" x2="100%" y2="0%"><stop offset="14.444444444444446%" stop-color="#2d5bfd" stop-opacity="1"></stop><stop offset="85.55555555555554%" stop-color="#2d5bfd" stop-opacity="1"></stop></linearGradient></defs><defs><linearGradient id="grad2_0" x1="0%" y1="100%" x2="56.3%" y2="0%"><stop offset="14.444444444444446%" stop-color="#2d5bfd" stop-opacity="1"></stop><stop offset="85.55555555555554%" stop-color="#2d5bfd" stop-opacity="1"></stop></linearGradient></defs><g transform="translate(960, 540)"><path d="M-45 0C-39.3 -1.1 -33.7 -2.2 -35.7 -4.3C-37.8 -6.5 -47.6 -9.7 -51.5 -12.7C-55.4 -15.7 -53.4 -18.5 -45.8 -17.4C-38.3 -16.2 -25.2 -11.1 -24.8 -13C-24.4 -14.9 -36.7 -23.8 -38.7 -26.7C-40.6 -29.6 -32.3 -26.6 -26.2 -23.2C-20.1 -19.8 -16.3 -16.1 -18.6 -21C-20.8 -25.8 -29.1 -39.2 -30.7 -44.4C-32.3 -49.7 -27.1 -46.8 -22.8 -43.4C-18.4 -39.9 -14.8 -35.9 -12.4 -32.7C-10 -29.6 -8.7 -27.4 -8.1 -33C-7.5 -38.7 -7.6 -52.1 -6.4 -52.6C-5.1 -53.1 -2.6 -40.5 0 -28L0 0Z" fill="#2d5bfd"></path></g><g transform="translate(0, 0)"><path d="M44 0C40.8 1 37.6 2.1 41.7 5.1C45.8 8.1 57.1 13 52.4 12.9C47.8 12.8 27.3 7.7 26.2 9.9C25.1 12.2 43.5 21.8 46.9 24.6C50.4 27.5 38.9 23.7 35.4 24.4C31.9 25.2 36.3 30.5 34.4 30.5C32.6 30.5 24.4 25 20.6 23.2C16.7 21.4 17.3 23.1 17 24.7C16.8 26.3 15.7 27.7 14.4 27.4C13.1 27.2 11.5 25.3 11.3 29.9C11.2 34.5 12.5 45.5 11.2 45.6C10 45.7 6.2 34.9 3.9 31.8C1.6 28.7 0.8 33.3 0 38L0 0Z" fill="#2d5bfd"></path></g></svg>